<svg xmlns="http://www.w3.org/2000/svg" width="100" height="100" viewBox="0 0 268 82" version="1.1" xml:space="preserve"><style>.s0{fill:#231f20;}</style><path d="M199.2 42.8l0-4.3c0.2-3.1 1-6.1 2.2-8.9 1.6-3.5 4-6.2 7.1-8.2 3.1-2 6.6-3 10.4-3 4.1 0 7.3 1.1 9.8 3.3 2.4 2.2 3.8 5.1 4.1 8.7l-8.9 1c-0.2-2-0.8-3.5-1.8-4.4 -0.9-1-2.2-1.4-3.8-1.4 -1.8 0-3.5 0.7-5 2.1 -1.6 1.4-2.8 3.5-3.6 6.3 -0.8 2.8-1.2 5.4-1.2 7.9 0 2.1 0.5 3.8 1.5 4.9 1 1.1 2.2 1.7 3.7 1.7 1.5 0 3-0.5 4.4-1.7 1.4-1.1 2.5-2.9 3.2-5.1l9.1 1.5c-1.5 4.2-3.7 7.4-6.7 9.6 -2.9 2.2-6.3 3.3-10.2 3.3 -4.4 0-7.9-1.4-10.5-4.1 -2.2-2.3-3.4-5.4-3.8-9.2l0 0Zm0-6.4c0-0.8 0-1.6 0-2.5 0-0.8 0-1.5 0-2.1l0 4.6 0 0Zm33.8-10l1.5-7.2 4.6 0 2.5-11.7 9.1-0.2 -2.3 11.9 5.7 0 -1.4 7.2 -5.8 0 -3 15.1c-0.6 2.8-0.8 4.3-0.8 4.7 0 0.7 0.2 1.3 0.7 1.7 0.5 0.4 1.3 0.6 2.5 0.6 0.4 0 1.4 0 3.1-0.2l-1.5 7.2c-1.6 0.3-3.2 0.5-5 0.5 -3.3 0-5.7-0.7-7.2-2 -1.5-1.3-2.3-3.1-2.3-5.5 0-1.1 0.4-3.7 1.2-7.7l2.9-14.5 -4.6 0 0 0 0 0Zm-33.8 5.3l0 4.6c-0.1 1.4-0.3 2.7-0.6 3.9l-15.2 0 0-6 7.3 0c0.1-0.4 0.1-0.7 0.1-0.9 0-2.7-0.6-4.7-1.8-6 -1.1-1.3-2.7-2-4.6-2 -0.3 0-0.7 0-1 0.1l0-7c0.7 0 1.3 0 2 0 4.2 0 7.6 1.3 10.2 4.1 2.1 2.3 3.3 5.4 3.7 9.3l0 0Zm0 6.7c-0.1 0.7-0.1 1.5-0.1 2.2 0 0.7 0 1.4 0.1 2.1l0-4.3 0 0Zm-15.8 17.5l0-7c2.4-0.5 4.3-2.1 5.8-4.9l8.4 1.5c-1.6 3.5-3.8 6.2-6.5 7.9 -2.3 1.5-4.9 2.3-7.6 2.6l0 0Zm0-37.6l0 7c-1.5 0.2-3 1-4.2 2.2 -1.6 1.5-2.6 3.8-3.1 6.7l7.3 0 0 6 -8.3 0 0 0.9c0 2.4 0.6 4.3 2 5.8 1.3 1.5 3 2.2 4.8 2.2 0.5 0 1.1 0 1.5-0.1l0 7c-0.5 0.1-1 0.1-1.6 0.1 -4.7 0-8.4-1.5-11.4-4.6 -0.5-0.5-0.9-1.1-1.3-1.6l0-22.3c0.2-0.5 0.6-1 0.9-1.4 3.2-4.7 7.7-7.2 13.3-7.8l0 0Zm-14.2 7.7l3-6.7c-1-0.5-2.1-0.8-3-0.9l0 7.6Zm0-7.6l0 7.6 -0.6 1.2c-0.9-0.3-1.8-0.5-2.7-0.5 -1.6 0-3.2 0.7-4.9 1.9 -1.7 1.3-3 3-3.9 5.1 -1 2.1-1.9 5.4-2.8 10.1l-2.2 11.3 -7.9 0 0-7 5.8-29 8.7 0 -1.4 7c3.3-5.2 6.8-7.8 10.6-7.8 0.4 0 0.9 0.1 1.3 0.1l0 0Zm0 9.1c-2 3.5-3 7.4-3 11.7 0 4.2 1 7.7 3.1 10.5l0-22.3 0 0Zm-25.1-1.4l1.4-7 -1.4 0 0 7Zm0-11.1l0-8.4 4 0 -1.8 8.4 -2.2 0 0 0Zm-14.3 3.6c0 0.2 0.1 0.3 0.1 0.5 0.5 2.1 0.8 4.4 0.8 6.9 0 3-0.3 5.7-0.9 8.3l0-15.6 0 0Zm14.3-12l0 8.4 -7 0 1.8-8.4 5.2 0 0 0Zm0 12.5l-7.9 0 -6.4 31.6 0 4.4 8.5 0 5.9-29 0-7 0 0Zm0 29l0 7 -1.4 0 1.4-7 0 0Zm-35.4-42.8c3.2 0 5.3 0 6.2 0.2 2 0.2 3.7 0.6 5.3 1.2 1.6 0.6 3 1.5 4.2 2.7 1.3 1.1 2.4 2.5 3.3 4.1 0.9 1.5 1.5 3.1 2 5.1l0 15.6c-0.5 2.1-1.1 4.1-2 6 -1.9 4.2-4.4 7.5-7.4 9.9 -2.3 1.9-5.2 3.3-8.9 4.2 -0.8 0.2-1.7 0.3-2.7 0.5l0-8.2c0.2 0 0.5-0.1 0.7-0.2 1.6-0.5 3.2-1.3 4.5-2.6 2-1.9 3.6-4.3 4.9-7.3 1.3-3 2-6.7 2-10.8 0-3.6-0.5-6.2-1.6-8 -1.1-1.8-2.5-3-4.1-3.6 -1.1-0.4-3.1-0.6-6-0.6l-0.3 0 0-8.2 0 0Zm21.1 45.3l-0.9 4.4 0.8 0 0-4.4Zm-44.6 4.4l10-49.7 13.6 0 0 8.2 -5.4 0 -6.7 33.5 5 0c3.1 0 5.5-0.2 7.1-0.5l0 8.2c-1.8 0.2-4 0.3-6.7 0.3l-16.9 0 0 0Z" fill="#231f20"></path><path d="M104.6 31.9l-4.3-5.2 7 3.8" fill="#f3a555"></path><path d="M106.4 30.1l0.5 0.6 -4.7 2.5 -8.2-9.8" fill="#f4aa52"></path><path d="M100.2 26.8l4.3 5.2 -4.7 2.5 -12.1-14.4" fill="#f4af4f"></path><path d="M94 23.4l8.2 9.8 -4.7 2.6 -16-19" fill="#f5b44d"></path><path d="M87.9 20.1l12.1 14.4 -4.7 2.5 -12.8-15.2 -3.2-6.3" fill="#f6b849"></path><path d="M81.6 16.8l16 19 -4.7 2.5 -6.4-7.7 0.3-0.5 -7.6-14.7" fill="#f7bc47"></path><path d="M82.4 21.8l12.8 15.2 -4.7 2.5 -5.3-6.3 1.5-3.1" fill="#fbc341"></path><path d="M86.5 30.6l6.4 7.7 -4.7 2.5 -4.2-5" fill="#fcca3b"></path><path d="M85.3 33.2l5.3 6.3 -4.7 2.6 -3.1-3.7" fill="#ffd131"></path><path d="M84 35.8l4.2 5 -4.7 2.5 -2-2.3" fill="#ffd829"></path><path d="M82.8 38.4l3.1 3.7 -4.7 2.5 -0.9-1" fill="#ffdf16"></path><path d="M81.6 41l2 2.3 -4.2 2.3" fill="#ffe600"></path><path d="M80.4 43.6l0.9 1 -1.9 1" fill="#fff100"></path><path d="M79.2 15.4l28 15.1 -27.8 15.1 7.4-15.5 -7.6-14.7Z" style="fill:none;stroke-width:1.1;stroke:#6d6e70"></path><path d="M254.7 11.6l0-3.1 -1.1 0 0-0.6 3 0 0 0.6 -1.1 0 0 3.1 -0.8 0 0 0Zm2.4 0l0-3.8 1.1 0 0.7 2.6 0.7-2.6 1.1 0 0 3.8 -0.7 0 0-3 -0.7 3 -0.7 0 -0.7-3 0 3 -0.7 0 0 0ZM178.4 60.9l5.2 0c1 0 1.8 0 2.3 0.1 0.5 0.1 1 0.3 1.4 0.6 0.4 0.3 0.7 0.7 1 1.1 0.3 0.5 0.4 1 0.4 1.6 0 0.6-0.2 1.2-0.5 1.7 -0.3 0.5-0.8 0.9-1.3 1.2 0.8 0.2 1.4 0.7 1.8 1.2 0.4 0.6 0.6 1.3 0.6 2 0 0.6-0.1 1.2-0.4 1.8 -0.3 0.6-0.7 1-1.1 1.4 -0.5 0.4-1.1 0.6-1.8 0.6 -0.4 0.1-1.5 0.1-3.2 0.1l-4.5 0 0-13.5 0 0Zm2.6 2.2l0 3.1 1.7 0c1 0 1.7 0 1.9 0 0.5-0.1 0.8-0.2 1.1-0.5 0.3-0.3 0.4-0.6 0.4-1.1 0-0.4-0.1-0.8-0.3-1 -0.2-0.3-0.5-0.4-1-0.5 -0.3 0-1 0-2.3 0l-1.5 0 0 0Zm0 5.4l0 3.6 2.5 0c1 0 1.6 0 1.8-0.1 0.4-0.1 0.7-0.3 1-0.5 0.2-0.3 0.4-0.7 0.4-1.1 0-0.4-0.1-0.7-0.3-1 -0.2-0.3-0.5-0.5-0.8-0.6 -0.4-0.1-1.1-0.2-2.3-0.2l-2.1 0 0 0Zm16.1 2.8l2.5 0.4c-0.3 0.9-0.8 1.7-1.5 2.2 -0.7 0.5-1.6 0.7-2.6 0.7 -1.6 0-2.9-0.6-3.7-1.7 -0.6-0.9-0.9-2-0.9-3.4 0-1.6 0.4-2.9 1.2-3.8 0.8-0.9 1.9-1.4 3.1-1.4 1.4 0 2.5 0.5 3.4 1.4 0.8 1 1.2 2.4 1.2 4.4l-6.3 0c0 0.8 0.2 1.4 0.6 1.8 0.4 0.4 0.9 0.6 1.5 0.6 0.4 0 0.7-0.1 1-0.3 0.3-0.2 0.5-0.6 0.6-1.1l0 0Zm0.1-2.6c0-0.7-0.2-1.3-0.6-1.7 -0.4-0.4-0.8-0.6-1.3-0.6 -0.5 0-1 0.2-1.4 0.6 -0.4 0.4-0.5 1-0.5 1.7l3.8 0Zm13.2 5.7l-2.5 0 0-5c0-1.1-0.1-1.7-0.2-2 -0.1-0.3-0.3-0.5-0.5-0.7 -0.2-0.2-0.5-0.2-0.9-0.2 -0.4 0-0.8 0.1-1.2 0.4 -0.3 0.3-0.6 0.6-0.7 1 -0.1 0.4-0.2 1.2-0.2 2.2l0 4.4 -2.5 0 0-9.8 2.3 0 0 1.4c0.8-1.1 1.9-1.6 3.1-1.6 0.6 0 1.1 0.1 1.5 0.3 0.5 0.2 0.8 0.5 1 0.8 0.2 0.3 0.4 0.7 0.5 1.1 0.1 0.4 0.1 1 0.1 1.7l0 6.1 0 0Zm8.1-3.1l2.5 0.4c-0.3 0.9-0.8 1.7-1.5 2.2 -0.7 0.5-1.6 0.7-2.6 0.7 -1.6 0-2.9-0.6-3.7-1.7 -0.6-0.9-0.9-2-0.9-3.4 0-1.6 0.4-2.9 1.2-3.8 0.8-0.9 1.9-1.4 3.1-1.4 1.4 0 2.5 0.5 3.3 1.4 0.8 1 1.2 2.4 1.2 4.4l-6.3 0c0 0.8 0.2 1.4 0.6 1.8 0.4 0.4 0.9 0.6 1.5 0.6 0.4 0 0.7-0.1 1-0.3 0.3-0.2 0.5-0.6 0.6-1.1l0 0Zm0.1-2.6c0-0.7-0.2-1.3-0.6-1.7 -0.4-0.4-0.8-0.6-1.3-0.6 -0.5 0-1 0.2-1.4 0.6 -0.4 0.4-0.5 1-0.5 1.7l3.8 0Zm4.5 5.7l0-13.5 2.5 0 0 13.5 -2.5 0Zm11.3 0l0-1.5c-0.3 0.5-0.8 0.9-1.4 1.2 -0.6 0.3-1.2 0.5-1.8 0.5 -0.6 0-1.2-0.1-1.7-0.4 -0.5-0.3-0.9-0.7-1.1-1.2 -0.2-0.5-0.3-1.2-0.3-2.2l0-6.2 2.5 0 0 4.5c0 1.4 0 2.2 0.1 2.5 0.1 0.3 0.3 0.6 0.5 0.7 0.2 0.2 0.6 0.3 0.9 0.3 0.4 0 0.8-0.1 1.2-0.4 0.3-0.2 0.6-0.5 0.7-0.9 0.1-0.3 0.2-1.2 0.2-2.6l0-4.1 2.5 0 0 9.8 -2.3 0 0 0Zm3.7 0l3.4-5 -3.3-4.7 3.1 0 1.7 2.7 1.8-2.7 3 0 -3.2 4.6 3.5 5.1 -3.1 0 -1.9-3 -1.9 3 -2.9 0 0 0Z" fill="#231f20"></path><path d="M78.8 34.9l4.9 0.8c-1 2.7-2.8 4.8-5.5 6.3 -2.6 1.4-5.9 2.2-9.7 2.2 -3.9 0-7.2-0.6-9.6-1.7 -2.5-1.1-4.4-2.7-5.6-4.8 -1.3-2.1-1.9-4.3-1.9-6.8 0-2.6 0.7-4.9 2.2-6.9 1.5-1.9 3.5-3.4 6.2-4.5 2.7-1 5.7-1.5 8.9-1.5 3.7 0 6.8 0.6 9.3 1.9 2.5 1.3 4.2 3.1 5.2 5.4l-4.8 0.8c-0.8-1.8-2.1-3.2-3.7-4 -1.6-0.8-3.6-1.3-6.1-1.3 -2.8 0-5.2 0.5-7.1 1.4 -1.9 0.9-3.2 2.2-4 3.7 -0.8 1.6-1.1 3.2-1.1 4.8 0 2.1 0.5 4 1.4 5.6 0.9 1.6 2.3 2.8 4.2 3.6 1.9 0.8 4 1.2 6.2 1.2 2.7 0 5-0.5 6.9-1.6 1.9-1.1 3.2-2.7 3.8-4.8l-0.1 0ZM32.9 43.4l0-25.8 5.1 0 0 22.8 18.8 0 0 3M6 43.4l0-25.8 14.5 0c2.5 0 4.5 0.1 5.8 0.2 1.9 0.2 3.5 0.6 4.7 1.2 1.3 0.6 2.3 1.4 3.1 2.5 0.8 1.1 1.2 2.2 1.2 3.5 0 2.2-1 4-3.1 5.6 -2.1 1.5-5.8 2.3-11.2 2.3l-9.8 0 0 10.5 -5.1 0 0 0Zm5.1-13.5l9.9 0c3.3 0 5.6-0.4 7-1.2 1.4-0.8 2.1-2 2.1-3.5 0-1.1-0.4-2-1.2-2.8 -0.8-0.8-1.9-1.3-3.2-1.5 -0.8-0.2-2.4-0.2-4.7-0.2l-9.8 0 0 9.2 0 0Z" fill="#231f20"></path></svg>